# xmcd
#
# Track frame offsets:
#	182
#	10255
#	22510
#	32352
#	44660
#	62432
#	74725
#	86172
#	96502
#	105405
#	118190
#	131310
#	142417
#	155987
#	166160
#	176632
#	187692
#	198500
#
# Disc length: 2853 seconds
#
# Revision: 2
# Processed by: cddbd v1.5.2PL0 Copyright (c) Steve Scherf et al.
# Submitted via: EasyCDDAExtractor 12.0.1.1
#
DISCID=f70b2312
DTITLE=Various Artist - Country Gentlemen
DYEAR=1994
DGENRE=Country
TTITLE0=Don Gibson - Lonesome Number One
TTITLE1=Stonewall Jackson - I Love You Because
TTITLE2=Hank Locklin - Please Help Me I'm Falling
TTITLE3=Jack Greene - There Goes My Everything
TTITLE4=Ferlin Husky - Convoy
TTITLE5=Johnny Paycheck - Take This Job And Shove It
TTITLE6=Porter Wagoner - Misery Loves Company
TTITLE7=Johnny Russell - Jambalaya
TTITLE8=Faron Young - Alone With You
TTITLE9=Dickey Lee - Never Ending Song Of Love
TTITLE10=Jim Ed Brown - You Can Have Her
TTITLE11=Jimmy Dean - Little Black Book
TTITLE12=David Houston - Almost Persuaded
TTITLE13=Jack Reno - Hitchin' A Ride
TTITLE14=Charlie Walker - Pick Me Up On Your Way Down
TTITLE15=Stu Phillips - Juanita Jones
TTITLE16=Justin Tubb - Take A Letter Miss Gray
TTITLE17=Cal Smith - Country Bumpkin
EXTD=
EXTT0=
EXTT1=
EXTT2=
EXTT3=
EXTT4=
EXTT5=
EXTT6=
EXTT7=
EXTT8=
EXTT9=
EXTT10=
EXTT11=
EXTT12=
EXTT13=
EXTT14=
EXTT15=
EXTT16=
EXTT17=
PLAYORDER=
